# xmcd CD database file generated by MAGIX_Freedb v0.9beta0
# 
# Track frame offsets:
#      150
#      8845
#      17828
#      31673
#      42590
#      53134
#      77732
#      87232
#      98913
#      114038
#      125395
#      140342
# 
# Disc length: 2075 seconds
# 
# Revision: 0 
# Processed by: cddbd v1.4PL0 Copyright (c) Steve Scherf et al.
# Submitted via: MAGIX_Freedb v0.9beta0
# 
DISCID=8a08190c
DTITLE="Stohli's" - Eini in die Ledahos'n
DYEAR=1900
DGENRE=
TTITLE0="Stohli's" - Jogl-Jodler
TTITLE1="Stohli's" - Kaktus Polka
TTITLE2="Stohli's" - Mein Herz ist im Hochland
TTITLE3="Stohli's" - Die alte Kuckucksuhr
TTITLE4="Stohli's" - Wetzstoa Hans
TTITLE5="Stohli's" - Eini in die Lederhos'n (Medley)
TTITLE6="Stohli's" - Am Zirbitz ist der Schnee so weiﬂ
TTITLE7="Stohli's" - Alphorn-Walzer
TTITLE8="Stohli's" - Zwoa alte Leit'
TTITLE9="Stohli's" - Beim Leit'nbauer
TTITLE10="Stohli's" - Dangellied
TTITLE11="Stohli's" - Ach Achmed
EXTD=
EXTT0=
EXTT1=
EXTT2=
EXTT3=
EXTT4=
EXTT5=
EXTT6=
EXTT7=
EXTT8=
EXTT9=
EXTT10=
EXTT11=
PLAYORDER=
